# xmcd
#
# Track frame offsets:
#	150
#	19293
#	39613
#	52408
#	76978
#	94445
#	116883
#	130718
#	147630
#
# Disc length: 2392 seconds
# Revision: 3
# Processed by: cddbd v1.5.2PL0 Copyright (c) Steve Scherf et al.
# Submitted via: dBpowerAMP V12.0
#
DISCID=89095609
DTITLE=Son Seals - Midnight Son
DYEAR=1976
DGENRE=Blues
TTITLE0=I Believe
TTITLE1=No, No Baby
TTITLE2=Four Full Seasons of Love
TTITLE3=Telephone Angel
TTITLE4=Don't Bother Me
TTITLE5=On My Knees
TTITLE6=Don't Fool With Me Baby
TTITLE7=Strung Out Woman
TTITLE8=Going Back Home
EXTD=
EXTT0=
EXTT1=
EXTT2=
EXTT3=
EXTT4=
EXTT5=
EXTT6=
EXTT7=
EXTT8=
PLAYORDER=
